<svg width="640" height="156" viewBox="0 0 640 156" fill="none" xmlns="http://www.w3.org/2000/svg">
<path d="M140.928 43.8H160.224V111H140.928V43.8ZM166.08 111H153.6V94.68H165.312C167.552 94.68 169.728 94.456 171.84 94.008C174.016 93.496 175.968 92.632 177.696 91.416C179.424 90.136 180.8 88.376 181.824 86.136C182.912 83.832 183.456 80.92 183.456 77.4C183.456 73.88 182.912 71 181.824 68.76C180.8 66.456 179.424 64.696 177.696 63.48C175.968 62.2 174.016 61.336 171.84 60.888C169.728 60.376 167.552 60.12 165.312 60.12H153.6V43.8H166.08C173.696 43.8 180.224 45.176 185.664 47.928C191.168 50.616 195.392 54.456 198.336 59.448C201.344 64.44 202.848 70.424 202.848 77.4C202.848 84.312 201.344 90.296 198.336 95.352C195.392 100.344 191.168 104.216 185.664 106.968C180.224 109.656 173.696 111 166.08 111ZM210.05 50.808C210.05 48.248 210.946 46.168 212.738 44.568C214.594 42.968 216.802 42.168 219.362 42.168C221.986 42.168 224.194 42.968 225.986 44.568C227.842 46.168 228.77 48.248 228.77 50.808C228.77 53.304 227.842 55.352 225.986 56.952C224.194 58.552 221.986 59.352 219.362 59.352C216.802 59.352 214.594 58.552 212.738 56.952C210.946 55.352 210.05 53.304 210.05 50.808ZM211.394 66.84H227.33V111H211.394V66.84ZM252.89 88.92C252.89 91.032 253.37 92.856 254.33 94.392C255.29 95.928 256.602 97.112 258.266 97.944C259.93 98.712 261.722 99.096 263.642 99.096C265.242 99.096 266.81 98.872 268.346 98.424C269.882 97.976 271.29 97.304 272.57 96.408C273.914 95.448 275.034 94.296 275.93 92.952V108.504C274.394 109.464 272.57 110.296 270.458 111C268.346 111.64 265.562 111.96 262.106 111.96C257.05 111.96 252.538 111.032 248.57 109.176C244.602 107.256 241.466 104.568 239.162 101.112C236.922 97.656 235.802 93.592 235.802 88.92C235.802 84.184 236.922 80.12 239.162 76.728C241.466 73.272 244.602 70.616 248.57 68.76C252.538 66.84 257.05 65.88 262.106 65.88C265.562 65.88 268.346 66.232 270.458 66.936C272.57 67.576 274.394 68.344 275.93 69.24V84.792C275.034 83.384 273.85 82.232 272.378 81.336C270.97 80.44 269.498 79.8 267.962 79.416C266.426 78.968 264.986 78.744 263.642 78.744C261.722 78.744 259.93 79.192 258.266 80.088C256.602 80.984 255.29 82.2 254.33 83.736C253.37 85.272 252.89 87 252.89 88.92ZM310.014 111.96C304.574 111.96 299.87 111.032 295.902 109.176C291.998 107.256 288.99 104.6 286.878 101.208C284.766 97.752 283.71 93.656 283.71 88.92C283.71 84.12 284.734 80.024 286.782 76.632C288.83 73.176 291.774 70.52 295.614 68.664C299.454 66.808 304.062 65.88 309.438 65.88C314.814 65.88 319.326 66.744 322.974 68.472C326.622 70.2 329.406 72.728 331.326 76.056C333.246 79.32 334.206 83.352 334.206 88.152C334.206 88.92 334.174 89.688 334.11 90.456C334.11 91.16 334.078 91.8 334.014 92.376H292.83V83.832H318.846L315.294 88.248C315.614 87.736 315.902 87.16 316.158 86.52C316.414 85.88 316.542 85.336 316.542 84.888C316.542 83.096 316.222 81.592 315.582 80.376C315.006 79.096 314.142 78.136 312.99 77.496C311.902 76.792 310.59 76.44 309.054 76.44C307.134 76.44 305.534 76.888 304.254 77.784C302.974 78.68 302.014 80.056 301.374 81.912C300.734 83.704 300.414 86.008 300.414 88.824C300.35 91.32 300.67 93.432 301.374 95.16C302.078 96.888 303.102 98.232 304.446 99.192C305.79 100.088 307.454 100.536 309.438 100.536C311.87 100.536 313.918 100.12 315.582 99.288C317.31 98.392 318.654 97.112 319.614 95.448L334.59 98.424C332.222 102.968 328.99 106.36 324.894 108.6C320.862 110.84 315.902 111.96 310.014 111.96ZM342.733 36.12H359.341V111H342.733V36.12ZM367.523 88.92C367.523 84.184 368.643 80.088 370.883 76.632C373.123 73.176 376.195 70.52 380.099 68.664C384.067 66.744 388.515 65.784 393.443 65.784C398.435 65.784 402.883 66.744 406.787 68.664C410.691 70.52 413.763 73.176 416.003 76.632C418.307 80.088 419.459 84.184 419.459 88.92C419.459 93.592 418.307 97.656 416.003 101.112C413.763 104.568 410.691 107.256 406.787 109.176C402.883 111.032 398.435 111.96 393.443 111.96C388.515 111.96 384.067 111.032 380.099 109.176C376.195 107.256 373.123 104.568 370.883 101.112C368.643 97.656 367.523 93.592 367.523 88.92ZM384.611 88.92C384.611 90.968 384.995 92.728 385.763 94.2C386.595 95.608 387.683 96.696 389.027 97.464C390.371 98.168 391.843 98.52 393.443 98.52C395.043 98.52 396.515 98.168 397.859 97.464C399.203 96.696 400.291 95.608 401.123 94.2C401.955 92.728 402.371 90.968 402.371 88.92C402.371 86.872 401.955 85.144 401.123 83.736C400.291 82.264 399.203 81.144 397.859 80.376C396.515 79.608 395.043 79.224 393.443 79.224C391.843 79.224 390.371 79.608 389.027 80.376C387.683 81.144 386.595 82.264 385.763 83.736C384.995 85.144 384.611 86.872 384.611 88.92ZM426.327 114.264H442.263C442.519 115.992 443.031 117.368 443.799 118.392C444.567 119.416 445.591 120.152 446.871 120.6C448.151 121.048 449.559 121.272 451.095 121.272C453.079 121.272 454.807 120.824 456.279 119.928C457.815 119.096 458.999 117.848 459.831 116.184C460.727 114.52 461.175 112.472 461.175 110.04V66.84H477.015V110.04C477.015 115.864 475.895 120.536 473.655 124.056C471.415 127.64 468.407 130.232 464.631 131.832C460.919 133.432 456.695 134.232 451.959 134.232C446.071 134.232 441.335 133.4 437.751 131.736C434.167 130.072 431.479 127.704 429.687 124.632C427.895 121.624 426.775 118.168 426.327 114.264ZM425.367 88.152C425.367 83.096 426.359 78.936 428.343 75.672C430.391 72.408 432.983 69.976 436.119 68.376C439.319 66.712 442.647 65.88 446.103 65.88C449.815 65.88 453.111 66.744 455.991 68.472C458.871 70.2 461.143 72.728 462.807 76.056C464.535 79.32 465.399 83.352 465.399 88.152C465.399 92.888 464.535 96.92 462.807 100.248C461.143 103.576 458.871 106.104 455.991 107.832C453.111 109.56 449.815 110.424 446.103 110.424C442.647 110.424 439.319 109.624 436.119 108.024C432.983 106.36 430.391 103.896 428.343 100.632C426.359 97.304 425.367 93.144 425.367 88.152ZM442.839 88.152C442.839 90.072 443.255 91.736 444.087 93.144C444.919 94.552 446.039 95.608 447.447 96.312C448.855 97.016 450.391 97.368 452.055 97.368C453.527 97.368 454.967 97.048 456.375 96.408C457.783 95.704 458.935 94.68 459.831 93.336C460.727 91.992 461.175 90.264 461.175 88.152C461.175 86.552 460.919 85.176 460.407 84.024C459.895 82.872 459.191 81.912 458.295 81.144C457.399 80.376 456.407 79.832 455.319 79.512C454.231 79.128 453.143 78.936 452.055 78.936C450.391 78.936 448.855 79.288 447.447 79.992C446.039 80.696 444.919 81.752 444.087 83.16C443.255 84.504 442.839 86.168 442.839 88.152ZM486.045 114.264H501.981C502.237 115.992 502.749 117.368 503.517 118.392C504.285 119.416 505.309 120.152 506.589 120.6C507.869 121.048 509.277 121.272 510.813 121.272C512.797 121.272 514.525 120.824 515.997 119.928C517.533 119.096 518.717 117.848 519.549 116.184C520.445 114.52 520.893 112.472 520.893 110.04V66.84H536.733V110.04C536.733 115.864 535.613 120.536 533.373 124.056C531.133 127.64 528.125 130.232 524.349 131.832C520.637 133.432 516.413 134.232 511.677 134.232C505.789 134.232 501.053 133.4 497.469 131.736C493.885 130.072 491.197 127.704 489.405 124.632C487.613 121.624 486.493 118.168 486.045 114.264ZM485.085 88.152C485.085 83.096 486.077 78.936 488.061 75.672C490.109 72.408 492.701 69.976 495.837 68.376C499.037 66.712 502.365 65.88 505.821 65.88C509.533 65.88 512.829 66.744 515.709 68.472C518.589 70.2 520.861 72.728 522.525 76.056C524.253 79.32 525.117 83.352 525.117 88.152C525.117 92.888 524.253 96.92 522.525 100.248C520.861 103.576 518.589 106.104 515.709 107.832C512.829 109.56 509.533 110.424 505.821 110.424C502.365 110.424 499.037 109.624 495.837 108.024C492.701 106.36 490.109 103.896 488.061 100.632C486.077 97.304 485.085 93.144 485.085 88.152ZM502.557 88.152C502.557 90.072 502.973 91.736 503.805 93.144C504.637 94.552 505.757 95.608 507.165 96.312C508.573 97.016 510.109 97.368 511.773 97.368C513.245 97.368 514.685 97.048 516.093 96.408C517.501 95.704 518.653 94.68 519.549 93.336C520.445 91.992 520.893 90.264 520.893 88.152C520.893 86.552 520.637 85.176 520.125 84.024C519.613 82.872 518.909 81.912 518.013 81.144C517.117 80.376 516.125 79.832 515.037 79.512C513.949 79.128 512.861 78.936 511.773 78.936C510.109 78.936 508.573 79.288 507.165 79.992C505.757 80.696 504.637 81.752 503.805 83.16C502.973 84.504 502.557 86.168 502.557 88.152ZM571.108 111.96C565.668 111.96 560.964 111.032 556.996 109.176C553.092 107.256 550.084 104.6 547.972 101.208C545.86 97.752 544.804 93.656 544.804 88.92C544.804 84.12 545.828 80.024 547.876 76.632C549.924 73.176 552.868 70.52 556.708 68.664C560.548 66.808 565.156 65.88 570.532 65.88C575.908 65.88 580.42 66.744 584.068 68.472C587.716 70.2 590.5 72.728 592.42 76.056C594.34 79.32 595.3 83.352 595.3 88.152C595.3 88.92 595.268 89.688 595.204 90.456C595.204 91.16 595.172 91.8 595.108 92.376H553.924V83.832H579.94L576.388 88.248C576.708 87.736 576.996 87.16 577.252 86.52C577.508 85.88 577.636 85.336 577.636 84.888C577.636 83.096 577.316 81.592 576.676 80.376C576.1 79.096 575.236 78.136 574.084 77.496C572.996 76.792 571.684 76.44 570.148 76.44C568.228 76.44 566.628 76.888 565.348 77.784C564.068 78.68 563.108 80.056 562.468 81.912C561.828 83.704 561.508 86.008 561.508 88.824C561.444 91.32 561.764 93.432 562.468 95.16C563.172 96.888 564.196 98.232 565.54 99.192C566.884 100.088 568.548 100.536 570.532 100.536C572.964 100.536 575.012 100.12 576.676 99.288C578.404 98.392 579.748 97.112 580.708 95.448L595.684 98.424C593.316 102.968 590.084 106.36 585.988 108.6C581.956 110.84 576.996 111.96 571.108 111.96ZM620.051 66.84V111H603.827V66.84H620.051ZM632.627 83.832C631.923 83.064 631.123 82.456 630.227 82.008C629.395 81.496 628.339 81.24 627.059 81.24C625.779 81.24 624.595 81.592 623.507 82.296C622.419 83 621.555 84.056 620.915 85.464C620.339 86.872 620.051 88.632 620.051 90.744L616.595 84.12C616.595 80.6 617.299 77.464 618.707 74.712C620.115 71.96 621.971 69.784 624.275 68.184C626.643 66.52 629.107 65.688 631.667 65.688C633.267 65.688 634.803 66.072 636.275 66.84C637.747 67.544 638.835 68.44 639.539 69.528L632.627 83.832Z" fill="#E61720"/>
<path fill-rule="evenodd" clip-rule="evenodd" d="M4.46312 11.4264C7.12062 8.60689 10.2247 6.66429 13.5456 5.54797C20.4528 3.22569 28.2933 4.4918 34.9739 8.94111C34.484 5.84459 33.5598 2.89105 32.4412 0C39.354 4.41157 43.8565 9.61358 45.5466 15.7295C50.768 18.1013 56.7007 19.485 63.7342 20.1432L63.4906 34.5421L30.6472 35.967L27.1298 27.0526C19.5438 28.3942 14.6148 35.967 21.0002 45.9022L10.918 61.1654C-4.42938 41.1885 2.73009 19.8624 22.6561 13.4999C19.0401 8.59994 11.742 8.45043 4.46312 11.4264ZM27.3363 16.4797C32.7405 16.4315 38.3116 17.8232 43.6045 21.579C37.517 27.3006 28.5097 25.25 27.3363 16.4797ZM17.8752 112.948C19.3316 137.863 45.2823 143.991 55.6157 143.991C68.2201 143.991 81.6136 137.029 86.0865 130.075L99.9776 107.068C113.931 132.41 87.9755 162.622 47.886 154.541C29.2629 150.787 7.80833 134.852 13.5465 109.825C11.2982 108.383 8.89737 107.335 6.2913 106.829C10.9179 98.9427 18.5356 91.6222 32.5387 91.6222C24.6969 100.937 22.0202 108.122 22.8044 118.784C21.1239 116.203 20.2907 115.07 17.8752 112.948ZM33.6897 39.8387L80.3557 37.7242L68.201 58.8154L33.6897 39.8387ZM71.3056 60.6111L83.4602 39.5199L104.971 81.0687L71.3056 60.6111ZM28.5656 41.1255L65.2139 61.2606L20.7731 86.6149L28.5656 41.1255ZM70.9886 115.66L70.6856 64.4254L106.413 86.1533L70.9886 115.66ZM4.36021 81.6055L23.7629 47.9374L17.0094 87.4444L4.36021 81.6055ZM72.1533 119.34L102.928 93.7273L83.5255 127.395L72.1533 119.34ZM68.8953 121.447L41.3722 130.15L78.7854 128.438L68.8953 121.447ZM5.82142 86.2346L17.2032 91.8487C15.0746 92.6344 12.162 94.5422 10.9297 96.1135L5.82142 86.2346ZM67.1096 64.3009L21.6841 90.2775C21.6841 90.2775 31.2062 87.584 37.7036 90.2775C34.679 92.8588 32.5505 96.2256 32.5505 96.2256L67.4034 116.36L67.1096 64.3009ZM64.7767 118.987L29.0996 130.257L25.717 114.856C25.717 109.132 27.6214 103.296 30.646 99.3681L64.7767 118.987Z" fill="#E61720"/>
</svg>
