<svg width="229" height="70" viewBox="0 0 229 70" fill="none" xmlns="http://www.w3.org/2000/svg">
<path d="M21.0106 1.32C27.9866 1.256 34.7706 1.576 41.3626 2.27999C41.4906 4.39199 41.5226 6.824 41.4586 9.576C41.4586 12.328 41.2986 14.856 40.9786 17.16C39.7626 16.904 38.2586 16.808 36.4666 16.872C34.6746 16.936 32.2746 17.032 29.2666 17.16H29.0746H28.9786C28.9786 17.224 28.9466 17.288 28.8826 17.352C28.8826 17.352 28.8826 17.384 28.8826 17.448C28.8186 17.768 28.7546 18.28 28.6906 18.984C28.6906 19.624 28.6906 20.68 28.6906 22.152C28.6906 23.56 28.6906 25.448 28.6906 27.816C28.7546 30.12 28.8186 33.128 28.8826 36.84C28.9466 40.488 29.0106 44.904 29.0746 50.088C29.1386 55.208 29.2346 61.256 29.3626 68.232V68.328V68.424C28.2106 68.616 26.9306 68.744 25.5226 68.808C24.1786 68.808 22.8026 68.808 21.3946 68.808C20.0506 68.808 18.7066 68.808 17.3626 68.808C16.0186 68.808 14.7706 68.904 13.6186 69.096C13.5546 68.84 13.5546 67.688 13.6186 65.64C13.6826 63.592 13.7146 60.552 13.7146 56.52C13.7786 52.424 13.7466 47.208 13.6186 40.872C13.5546 34.536 13.3306 26.888 12.9466 17.928L12.8506 17.832C12.0826 17.448 11.1226 17.224 9.97063 17.16C8.81863 17.032 7.66663 16.968 6.51463 16.968C5.36263 16.904 4.30663 16.872 3.34663 16.872C2.38663 16.872 1.71463 16.808 1.33063 16.68C1.20263 16.424 1.07463 15.784 0.946625 14.76C0.882625 13.736 0.818625 12.52 0.754625 11.112C0.754625 9.64 0.754625 8.072 0.754625 6.408C0.754625 4.744 0.818625 3.144 0.946625 1.608C0.946625 1.544 0.914625 1.512 0.850625 1.512C0.850625 1.512 0.850625 1.48 0.850625 1.41599C7.37863 1.352 14.0986 1.32 21.0106 1.32ZM81.6211 1.128C82.8371 1.128 83.9251 1.16 84.8851 1.224L87.4771 68.424C86.3891 68.616 85.2051 68.744 83.9251 68.808C82.7091 68.872 81.4931 68.904 80.2771 68.904C79.1251 68.904 77.9731 68.904 76.8211 68.904C75.7331 68.904 74.8051 68.936 74.0371 69H73.9411C73.6211 66.888 73.3971 64.712 73.2691 62.472C73.2051 60.168 73.1411 57.896 73.0771 55.656C73.0771 53.416 73.0451 51.176 72.9811 48.936C72.9171 46.696 72.7571 44.552 72.5011 42.504L72.4051 42.408C70.5491 42.088 68.6931 41.928 66.8371 41.928C64.9811 41.928 63.1251 42.152 61.2691 42.6C61.0771 44.84 60.9811 47.048 60.9811 49.224C61.0451 51.4 61.1091 53.576 61.1731 55.752C61.2371 57.928 61.2371 60.072 61.1731 62.184C61.1731 64.232 61.0131 66.28 60.6931 68.328C59.9251 68.776 58.9011 69 57.6211 69C56.3411 69 55.0611 68.936 53.7811 68.808C52.5011 68.68 51.2851 68.584 50.1331 68.52C49.0451 68.456 48.2131 68.584 47.6371 68.904C47.5091 67.112 47.3491 64.68 47.1571 61.608C47.0291 58.472 46.9011 54.984 46.7731 51.144C46.6451 47.24 46.5171 43.112 46.3891 38.76C46.3251 34.408 46.2611 30.056 46.1971 25.704C46.1331 21.288 46.1011 17.064 46.1011 13.032C46.1651 8.936 46.2291 5.256 46.2931 1.992V1.89599H46.3891H46.5811C47.5411 2.088 48.5331 2.152 49.5571 2.088C50.6451 2.024 51.7011 1.96 52.7251 1.89599C53.8131 1.832 54.8691 1.8 55.8931 1.8C56.9171 1.8 57.8771 1.928 58.7731 2.184C59.3491 6.6 59.6371 10.888 59.6371 15.048C59.6371 19.208 60.0211 23.336 60.7891 27.432H60.8851C62.4851 27.816 64.2131 27.944 66.0691 27.816C67.9251 27.624 69.6531 27.464 71.2531 27.336H71.3491C71.7331 22.92 71.9251 18.792 71.9251 14.952C71.9891 11.112 71.9251 6.888 71.7331 2.27999C72.5011 2.02399 73.4291 1.8 74.5171 1.608C75.6691 1.416 76.8531 1.288 78.0691 1.224C79.2851 1.096 80.4691 1.064 81.6211 1.128ZM102.743 1.512C104.279 1.576 106.487 1.576 109.367 1.512H111.671V1.89599C111.671 7.4 111.575 12.936 111.383 18.504C111.255 24.072 111.127 29.672 110.999 35.304C110.935 40.872 110.935 46.44 110.999 52.008C111.063 57.576 111.255 63.08 111.575 68.52C111.063 69.032 109.975 69.32 108.311 69.384C106.711 69.512 104.951 69.544 103.031 69.48C101.175 69.416 99.3834 69.32 97.6554 69.192C95.9274 69.128 94.7434 69.192 94.1034 69.384C94.5514 63.624 94.7434 57.832 94.6794 52.008C94.6154 46.184 94.4874 40.424 94.2954 34.728C94.1674 28.968 94.0714 23.304 94.0074 17.736C94.0074 12.104 94.2954 6.6 94.8714 1.224V1.032C95.1914 0.967997 95.7994 0.999996 96.6954 1.128C97.6554 1.192 98.3594 1.224 98.8074 1.224C99.9594 1.288 101.271 1.384 102.743 1.512ZM158.305 69.288C157.857 69.416 157.089 69.48 156.001 69.48C154.721 69.48 153.249 69.384 151.585 69.192C149.921 69.064 148.449 69 147.169 69C145.057 64.264 142.945 59.688 140.833 55.272C138.785 50.792 137.025 46.504 135.553 42.408L134.593 39.528C134.337 38.824 134.081 38.184 133.825 37.608C133.633 36.968 133.473 36.648 133.345 36.648C133.281 36.648 133.185 37.416 133.057 38.952C132.993 40.488 132.929 42.44 132.865 44.808C132.801 47.176 132.737 49.8 132.673 52.68C132.673 55.56 132.673 58.344 132.673 61.032C132.673 62.504 132.673 63.944 132.673 65.352C132.673 66.696 132.705 67.912 132.769 69C132.065 69.192 131.361 69.32 130.657 69.384C129.953 69.448 129.249 69.48 128.545 69.48C127.009 69.48 125.441 69.384 123.841 69.192C122.305 69 120.801 68.904 119.329 68.904V62.184C119.329 56.104 119.265 50.312 119.137 44.808C119.073 39.304 119.041 33.544 119.041 27.528C119.041 23.112 119.105 18.76 119.233 14.472C119.361 10.12 119.585 5.896 119.905 1.8C120.545 1.672 121.217 1.576 121.921 1.512C122.689 1.448 123.457 1.41599 124.225 1.41599C124.609 1.41599 125.249 1.448 126.145 1.512C127.041 1.512 127.937 1.576 128.833 1.704C129.729 1.768 130.497 1.864 131.137 1.992C131.841 2.12 132.193 2.248 132.193 2.376C132.641 3.528 133.057 4.488 133.441 5.256C133.825 6.024 134.177 6.76 134.497 7.464C134.881 8.168 135.265 8.96799 135.649 9.86399C136.097 10.696 136.609 11.784 137.185 13.128C137.313 13.448 137.601 14.056 138.049 14.952C138.497 15.848 139.009 16.904 139.585 18.12C140.161 19.272 140.769 20.52 141.409 21.864C142.049 23.144 142.625 24.328 143.137 25.416C143.713 26.44 144.193 27.336 144.577 28.104C144.961 28.808 145.185 29.16 145.249 29.16C145.441 29.032 145.601 28.392 145.729 27.24C145.857 26.088 145.921 24.968 145.921 23.88C145.921 21.32 145.857 18.952 145.729 16.776C145.665 14.536 145.633 12.264 145.633 9.96C145.633 8.616 145.633 7.272 145.633 5.928C145.697 4.52 145.761 3.016 145.825 1.41599C148.001 1.032 150.305 0.839996 152.737 0.839996C155.105 0.839996 157.217 1.032 159.073 1.41599V32.328C159.137 35.016 159.169 37.736 159.169 40.488C159.169 43.24 159.169 45.992 159.169 48.744C159.169 50.6 159.137 52.392 159.073 54.12C159.073 55.848 159.073 57.608 159.073 59.4C159.073 60.68 159.073 61.96 159.073 63.24C159.137 64.52 159.169 65.8 159.169 67.08V69C159.041 69.064 158.753 69.16 158.305 69.288ZM195.173 26.472C193.637 29.16 192.293 31.848 191.141 34.536L207.557 68.616C205.509 69.064 203.269 69.224 200.837 69.096C198.469 68.968 196.261 68.872 194.213 68.808C192.869 67.272 191.621 65.448 190.469 63.336C189.317 61.16 188.197 58.92 187.109 56.616C186.085 54.312 185.061 52.04 184.037 49.8C183.013 47.56 181.989 45.544 180.965 43.752C180.901 45.608 180.869 47.624 180.869 49.8C180.933 51.912 180.997 54.056 181.061 56.232C181.125 58.408 181.157 60.552 181.157 62.664C181.221 64.776 181.253 66.728 181.253 68.52C180.357 68.776 179.301 68.936 178.085 69C176.869 69.128 175.589 69.192 174.245 69.192C172.901 69.192 171.589 69.128 170.309 69C169.093 68.872 168.069 68.712 167.237 68.52C166.725 57.512 166.629 46.472 166.949 35.4C167.333 24.264 167.493 13.096 167.429 1.89599C169.541 1.832 171.685 1.864 173.861 1.992C176.101 2.056 178.245 2.088 180.293 2.088C180.421 5.736 180.453 9.576 180.389 13.608C180.325 17.64 180.357 21.48 180.485 25.128C180.485 25.192 180.517 25.16 180.581 25.032C180.709 24.84 180.837 24.68 180.965 24.552C182.309 22.824 183.525 21.032 184.613 19.176C185.701 17.32 186.725 15.432 187.685 13.512C188.709 11.592 189.733 9.672 190.757 7.752C191.845 5.832 193.061 3.912 194.405 1.992C196.453 2.12 198.629 2.12 200.933 1.992C203.237 1.864 205.413 1.96 207.461 2.27999C206.693 4.96799 205.605 7.656 204.197 10.344C202.853 13.032 201.381 15.72 199.781 18.408C198.245 21.096 196.709 23.784 195.173 26.472ZM219.556 1.512C221.092 1.576 223.3 1.576 226.18 1.512H228.484V1.89599C228.484 7.4 228.388 12.936 228.196 18.504C228.068 24.072 227.94 29.672 227.812 35.304C227.748 40.872 227.748 46.44 227.812 52.008C227.876 57.576 228.068 63.08 228.388 68.52C227.876 69.032 226.788 69.32 225.124 69.384C223.524 69.512 221.764 69.544 219.844 69.48C217.988 69.416 216.196 69.32 214.468 69.192C212.74 69.128 211.556 69.192 210.916 69.384C211.364 63.624 211.556 57.832 211.492 52.008C211.428 46.184 211.3 40.424 211.108 34.728C210.98 28.968 210.884 23.304 210.82 17.736C210.82 12.104 211.108 6.6 211.684 1.224V1.032C212.004 0.967997 212.612 0.999996 213.508 1.128C214.468 1.192 215.172 1.224 215.62 1.224C216.772 1.288 218.084 1.384 219.556 1.512Z" fill="#4F46E5"/>
</svg>
